<?xml version="1.0" encoding="UTF-8"?>
<svg id="Capa_2" data-name="Capa 2" xmlns="http://www.w3.org/2000/svg" viewBox="0 0 300.91 248.04">
  <defs>
    <style>
      .cls-1 {
        fill: #fff;
      }
    </style>
  </defs>
  <g id="Capa_1-2" data-name="Capa 1">
    <g>
      <path class="cls-1" d="M55.18,158.5c0-1.62-.3-2.97-.89-4.05-.6-1.08-1.64-2.34-3.12-3.78L4.89,103.72c-2.38-2.52-3.78-4.67-4.23-6.47s-.67-3.78-.67-5.94v-49.12c0-5.75,2.67-9.93,8.01-12.54,5.34-2.61,12.76-3.92,22.26-3.92h29.83c9.49,0,16.91,1.31,22.25,3.92s8.02,6.81,8.02,12.58v47.32h-35.19v-44.58h-19.99v44.58c0,1.62.37,3.02,1.11,4.19.74,1.17,1.7,2.38,2.89,3.64l43.61,44.26c1.78,1.62,3.11,3.06,4,4.32s1.63,2.52,2.23,3.78c.59,1.26.96,2.7,1.11,4.32.15,1.62.22,3.6.22,5.94v45.88c0,5.76-2.67,9.94-8.02,12.55s-12.76,3.91-22.25,3.91h-29.83c-9.5,0-16.92-1.31-22.26-3.92-5.34-2.61-8.01-6.8-8.01-12.58v-47.32h35.19v44.58h19.99v-44.58Z"/>
      <polygon class="cls-1" points="179.02 0 150.06 223.85 180.38 223.85 180.38 248.04 118.71 248.04 147.67 24.19 116.66 24.19 116.66 0 179.02 0"/>
      <path class="cls-1" d="M240.23,25.73l29.54,98.83V25.73h23.63c4.15,0,7.51,3.36,7.51,7.51v180.55c0,4.71-3.81,8.52-8.52,8.52h-19.43l-29.54-101.53v101.53h-31.14V25.73h27.95Z"/>
    </g>
  </g>
</svg>